Coordinates
version=1
nRows=23
nColumns=27
inDegrees=yes

Units are S.I. units (second, meters, Newtons, ...)
If the header above contains a line with 'inDegrees', this indicates whether rotational values are in degrees (yes) or radians (no).

endheader
time	pelvis_rotation	pelvis_tilt	pelvis_list	pelvis_tx	pelvis_ty	pelvis_tz	hip_flexion_r	hip_adduction_r	hip_rotation_r	knee_angle_r	knee_rotation_r	knee_adduction_r	knee_angle_r_beta	ankle_angle_r	subtalar_angle_r	mtp_angle_r	hip_flexion_l	hip_adduction_l	hip_rotation_l	knee_angle_l	knee_rotation_l	knee_adduction_l	knee_angle_l_beta	ankle_angle_l	subtalar_angle_l	mtp_angle_l
      4.78500000	      4.60798683	    -30.10191128	      2.29161662	     -0.00315174	      0.42023098	     -1.14171629	    132.00604335	    -47.99333066	     29.01160449	    111.63027334	      0.00000000	      9.93523691	      1.94831581	     19.16554065	      0.00000000	      0.00000000	    130.93538596	    -42.12295757	     22.53744873	    105.98422735	      0.00000000	     -9.95055228	      1.84977372	      7.44950054	      0.00000000	      0.00000000
      4.79000000	      4.67758300	    -30.01956281	      2.50734925	     -0.00279612	      0.41891623	     -1.14173909	    132.38706166	    -47.85270416	     29.54304854	    111.82193105	      0.00000000	      9.93538417	      1.95166087	     19.22504084	      0.00000000	      0.00000000	    130.86933873	    -42.19431659	     22.44769243	    106.13339822	      0.00000000	     -9.95063475	      1.85237725	      7.55867183	      0.00000000	      0.00000000
      4.79500000	      4.67369211	    -29.93680797	      2.47319844	     -0.00250925	      0.41768945	     -1.14180269	    132.46772402	    -47.82751770	     29.70913102	    111.97115450	      0.00000000	      9.93544766	      1.95426531	     19.28630069	      0.00000000	      0.00000000	    131.02078163	    -42.14635165	     22.65667258	    106.29893356	      0.00000000	     -9.95072631	      1.85526638	      7.61157676	      0.00000000	      0.00000000
      4.80000000	      4.68883398	    -29.85832687	      2.45387475	     -0.00225602	      0.41651218	     -1.14185640	    132.56916040	    -47.81310176	     29.89337278	    112.11258049	      0.00000000	      9.93551431	      1.95673366	     19.32755669	      0.00000000	      0.00000000	    131.15762500	    -42.08952503	     22.83656170	    106.45613856	      0.00000000	     -9.95080845	      1.85801013	      7.65885974	      0.00000000	      0.00000000
      4.80500000	      4.69859518	    -29.78022891	      2.43540044	     -0.00201849	      0.41535908	     -1.14191712	    132.66896658	    -47.80085233	     30.07038928	    112.24818423	      0.00000000	      9.93557697	      1.95910039	     19.39369863	      0.00000000	      0.00000000	    131.28618286	    -42.04679728	     23.00708789	    106.60185792	      0.00000000	     -9.95089195	      1.86055341	      7.70656816	      0.00000000	      0.00000000
      4.81000000	      4.68218291	    -29.72103173	      2.39042533	     -0.00179827	      0.41429305	     -1.14198918	    132.73396939	    -47.77773989	     30.19007340	    112.37423728	      0.00000000	      9.93560801	      1.96130043	     19.42788997	      0.00000000	      0.00000000	    131.45801879	    -42.01775318	     23.20645490	    106.75004725	      0.00000000	     -9.95099093	      1.86313980	      7.72037576	      0.00000000	      0.00000000
      4.81500000	      4.67829403	    -29.66652344	      2.36627554	     -0.00160529	      0.41321557	     -1.14204746	    132.84392298	    -47.75811005	     30.34375352	    112.50006790	      0.00000000	      9.93568728	      1.96349659	     19.47824590	      0.00000000	      0.00000000	    131.61679999	    -41.99010933	     23.38066563	    106.88981168	      0.00000000	     -9.95108486	      1.86557915	      7.75667425	      0.00000000	      0.00000000
      4.82000000	      4.67572833	    -29.62827191	      2.34265232	     -0.00145073	      0.41220021	     -1.14211285	    132.96049520	    -47.74258922	     30.48512149	    112.61686603	      0.00000000	      9.93575067	      1.96553511	     19.52627469	      0.00000000	      0.00000000	    131.78363787	    -41.96645306	     23.54245919	    107.01944937	      0.00000000	     -9.95118233	      1.86784176	      7.77522632	      0.00000000	      0.00000000
      4.82500000	      4.67007102	    -29.58916999	      2.32507096	     -0.00132706	      0.41124307	     -1.14217367	    133.07937509	    -47.72400910	     30.62558371	    112.72484441	      0.00000000	      9.93583310	      1.96741968	     19.53887761	      0.00000000	      0.00000000	    131.94157430	    -41.95391897	     23.69054095	    107.14259219	      0.00000000	     -9.95127010	      1.86999100	      7.78513616	      0.00000000	      0.00000000
      4.83000000	      4.62244370	    -29.57998925	      2.24619491	     -0.00124262	      0.41032751	     -1.14223633	    133.13863398	    -47.70202240	     30.66083071	    112.81926868	      0.00000000	      9.93586461	      1.96906770	     19.56984884	      0.00000000	      0.00000000	    132.18790069	    -41.94302960	     23.91625853	    107.26633414	      0.00000000	     -9.95137832	      1.87215071	      7.77830224	      0.00000000	      0.00000000
      4.83500000	      4.67946431	    -29.55553796	      2.30970086	     -0.00114000	      0.40943584	     -1.14229707	    133.38115309	    -47.69799093	     30.92258932	    112.92777884	      0.00000000	      9.93599796	      1.97096156	     19.56031380	      0.00000000	      0.00000000	    132.27105466	    -41.93291681	     23.93487933	    107.36605906	      0.00000000	     -9.95144731	      1.87389124	      7.77473652	      0.00000000	      0.00000000
      4.84000000	      4.67909985	    -29.56611662	      2.28593202	     -0.00107044	      0.40859177	     -1.14237276	    133.53142341	    -47.69758464	     31.03107939	    113.01922980	      0.00000000	      9.93604822	      1.97255768	     19.60716711	      0.00000000	      0.00000000	    132.47385913	    -41.91484036	     24.07823127	    107.47796611	      0.00000000	     -9.95152457	      1.87584438	      7.78130872	      0.00000000	      0.00000000
      4.84500000	      4.67612997	    -29.58709548	      2.28514281	     -0.00107687	      0.40782627	     -1.14241999	    133.70881662	    -47.67234482	     31.15979281	    113.10241114	      0.00000000	      9.93613030	      1.97400947	     19.60270791	      0.00000000	      0.00000000	    132.66868263	    -41.92515033	     24.17374494	    107.56588496	      0.00000000	     -9.95160598	      1.87737886	      7.71941434	      0.00000000	      0.00000000
      4.85000000	      4.67170449	    -29.58557212	      2.26411187	     -0.00109674	      0.40709100	     -1.14250385	    133.84522133	    -47.66464469	     31.26217789	    113.17411020	      0.00000000	      9.93617227	      1.97526085	     19.57430817	      0.00000000	      0.00000000	    132.83350770	    -41.91114415	     24.28749348	    107.65874970	      0.00000000	     -9.95167042	      1.87899965	      7.73765105	      0.00000000	      0.00000000
      4.85500000	      4.63122935	    -29.63745510	      2.08737050	     -0.00116730	      0.40642588	     -1.14261312	    133.84208848	    -47.73925800	     31.13582640	    113.21804635	      0.00000000	      9.93618804	      1.97602768	     19.58828395	      0.00000000	      0.00000000	    133.19186327	    -41.80450843	     24.58383930	    107.76208366	      0.00000000	     -9.95170474	      1.88080317	      7.69888491	      0.00000000	      0.00000000
      4.86000000	      4.71260530	    -29.64048156	      2.38545964	     -0.00117715	      0.40576093	     -1.14264871	    134.32858485	    -47.57020314	     31.65845301	    113.32415018	      0.00000000	      9.93627568	      1.97787954	     19.53904913	      0.00000000	      0.00000000	    133.07170148	    -41.97137003	     24.29356756	    107.80986061	      0.00000000	     -9.95176471	      1.88163703	      7.70775260	      0.00000000	      0.00000000
      4.86500000	      4.68167497	    -29.68757798	      2.25064526	     -0.00129620	      0.40519433	     -1.14274501	    134.35017801	    -47.62373248	     31.57017678	    113.36051036	      0.00000000	      9.93627901	      1.97851415	     19.55701283	      0.00000000	      0.00000000	    133.37484806	    -41.88746995	     24.52622296	    107.89200453	      0.00000000	     -9.95177706	      1.88307072	      7.64280671	      0.00000000	      0.00000000
      4.87000000	      4.68498568	    -29.71545791	      2.24857670	     -0.00140593	      0.40465627	     -1.14284414	    134.49806359	    -47.60553182	     31.66135540	    113.40763520	      0.00000000	      9.93626941	      1.97933663	     19.53435512	      0.00000000	      0.00000000	    133.53199470	    -41.87406028	     24.58881620	    107.96182778	      0.00000000	     -9.95179442	      1.88428936	      7.60782932	      0.00000000	      0.00000000
      4.87500000	      4.69465489	    -29.75929239	      2.25168612	     -0.00153020	      0.40417267	     -1.14294051	    134.66676547	    -47.59275129	     31.75247717	    113.45205586	      0.00000000	      9.93626005	      1.98011192	     19.50882176	      0.00000000	      0.00000000	    133.68750777	    -41.85775382	     24.63579276	    108.02550625	      0.00000000	     -9.95177525	      1.88540076	      7.59445570	      0.00000000	      0.00000000
      4.88000000	      4.68798709	    -29.81912542	      2.15338048	     -0.00170216	      0.40373302	     -1.14307515	    134.72931399	    -47.63884658	     31.70304707	    113.47381381	      0.00000000	      9.93615824	      1.98049167	     19.48627469	      0.00000000	      0.00000000	    133.94154057	    -41.75796000	     24.80015422	    108.10011288	      0.00000000	     -9.95175997	      1.88670289	      7.53182523	      0.00000000	      0.00000000
      4.88500000	      4.72081028	    -29.86961056	      2.30046967	     -0.00188800	      0.40333458	     -1.14315511	    135.03153854	    -47.51767388	     31.96428398	    113.52582534	      0.00000000	      9.93610383	      1.98139944	     19.44233752	      0.00000000	      0.00000000	    133.95857061	    -41.83087139	     24.66076372	    108.13638316	      0.00000000	     -9.95173249	      1.88733593	      7.53571084	      0.00000000	      0.00000000
      4.89000000	      4.68408774	    -29.95570238	      2.13764284	     -0.00214650	      0.40302719	     -1.14329882	    135.02243015	    -47.57567743	     31.79929685	    113.52377604	      0.00000000	      9.93597326	      1.98136367	     19.40587156	      0.00000000	      0.00000000	    134.26859419	    -41.70128588	     24.88375483	    108.19794079	      0.00000000	     -9.95167586	      1.88841031	      7.50701809	      0.00000000	      0.00000000
      4.89500000	      4.68956235	    -29.98970965	      2.04456261	     -0.00233766	      0.40277196	     -1.14343332	    135.03184501	    -47.63550638	     31.73262084	    113.52725270	      0.00000000	      9.93587936	      1.98142435	     19.39844875	      0.00000000	      0.00000000	    134.45490926	    -41.59653676	     25.00625351	    108.25029682	      0.00000000	     -9.95160481	      1.88932410	      7.46381991	      0.00000000	      0.00000000
